<svg xmlns="http://www.w3.org/2000/svg" width="625" height="1212" viewBox="0 0 625 1212">
    <g fill="#334EE2" fill-rule="evenodd">
        <g>
            <circle cx="6.5" cy="285.5" r="6.5" transform="rotate(-90 6.5 285.5)"/>
            <circle cx="356.214" cy="285.5" r="6.5" transform="rotate(-90 356.214 285.5)"/>
            <circle cx="93.929" cy="285.5" r="6.5" transform="rotate(-90 93.929 285.5)"/>
            <circle cx="443.643" cy="285.5" r="6.5" transform="rotate(-90 443.643 285.5)"/>
            <circle cx="181.357" cy="285.5" r="6.5" transform="rotate(-90 181.357 285.5)"/>
            <circle cx="531.071" cy="285.5" r="6.5" transform="rotate(-90 531.071 285.5)"/>
            <circle cx="268.786" cy="285.5" r="6.5" transform="rotate(-90 268.786 285.5)"/>
            <circle cx="618.5" cy="285.5" r="6.5" transform="rotate(-90 618.5 285.5)"/>
            <circle cx="6.5" cy="470.5" r="6.5" transform="rotate(-90 6.5 470.5)"/>
            <circle cx="356.214" cy="470.5" r="6.5" transform="rotate(-90 356.214 470.5)"/>
            <circle cx="93.929" cy="470.5" r="6.5" transform="rotate(-90 93.929 470.5)"/>
            <circle cx="443.643" cy="470.5" r="6.5" transform="rotate(-90 443.643 470.5)"/>
            <circle cx="181.357" cy="470.5" r="6.5" transform="rotate(-90 181.357 470.5)"/>
            <circle cx="531.071" cy="470.5" r="6.5" transform="rotate(-90 531.071 470.5)"/>
            <circle cx="268.786" cy="470.5" r="6.5" transform="rotate(-90 268.786 470.5)"/>
            <circle cx="618.5" cy="470.5" r="6.5" transform="rotate(-90 618.5 470.5)"/>
            <circle cx="6.5" cy="99.5" r="6.5" transform="rotate(-90 6.5 99.5)"/>
            <circle cx="356.214" cy="99.5" r="6.5" transform="rotate(-90 356.214 99.5)"/>
            <circle cx="93.929" cy="99.5" r="6.5" transform="rotate(-90 93.929 99.5)"/>
            <circle cx="443.643" cy="99.5" r="6.5" transform="rotate(-90 443.643 99.5)"/>
            <circle cx="181.357" cy="99.5" r="6.5" transform="rotate(-90 181.357 99.5)"/>
            <circle cx="531.071" cy="99.5" r="6.5" transform="rotate(-90 531.071 99.5)"/>
            <circle cx="268.786" cy="99.5" r="6.5" transform="rotate(-90 268.786 99.5)"/>
            <circle cx="618.5" cy="99.5" r="6.5" transform="rotate(-90 618.5 99.5)"/>
            <circle cx="6.5" cy="6.5" r="6.5" transform="rotate(-90 6.5 6.5)"/>
            <circle cx="356.214" cy="6.5" r="6.5" transform="rotate(-90 356.214 6.5)"/>
            <circle cx="93.929" cy="6.5" r="6.5" transform="rotate(-90 93.929 6.5)"/>
            <circle cx="443.643" cy="6.5" r="6.5" transform="rotate(-90 443.643 6.5)"/>
            <circle cx="181.357" cy="6.5" r="6.5" transform="rotate(-90 181.357 6.5)"/>
            <circle cx="531.071" cy="6.5" r="6.5" transform="rotate(-90 531.071 6.5)"/>
            <circle cx="268.786" cy="6.5" r="6.5" transform="rotate(-90 268.786 6.5)"/>
            <circle cx="618.5" cy="6.5" r="6.5" transform="rotate(-90 618.5 6.5)"/>
            <circle cx="6.5" cy="563.5" r="6.5" transform="rotate(-90 6.5 563.5)"/>
            <circle cx="356.214" cy="563.5" r="6.5" transform="rotate(-90 356.214 563.5)"/>
            <circle cx="93.929" cy="563.5" r="6.5" transform="rotate(-90 93.929 563.5)"/>
            <circle cx="443.643" cy="563.5" r="6.5" transform="rotate(-90 443.643 563.5)"/>
            <circle cx="181.357" cy="563.5" r="6.5" transform="rotate(-90 181.357 563.5)"/>
            <circle cx="531.071" cy="563.5" r="6.5" transform="rotate(-90 531.071 563.5)"/>
            <circle cx="268.786" cy="563.5" r="6.5" transform="rotate(-90 268.786 563.5)"/>
            <circle cx="618.5" cy="563.5" r="6.5" transform="rotate(-90 618.5 563.5)"/>
            <circle cx="6.5" cy="192.5" r="6.5" transform="rotate(-90 6.5 192.5)"/>
            <circle cx="356.214" cy="192.5" r="6.5" transform="rotate(-90 356.214 192.5)"/>
            <circle cx="93.929" cy="192.5" r="6.5" transform="rotate(-90 93.929 192.5)"/>
            <circle cx="443.643" cy="192.5" r="6.5" transform="rotate(-90 443.643 192.5)"/>
            <circle cx="181.357" cy="192.5" r="6.5" transform="rotate(-90 181.357 192.5)"/>
            <circle cx="531.071" cy="192.5" r="6.5" transform="rotate(-90 531.071 192.5)"/>
            <circle cx="268.786" cy="192.5" r="6.5" transform="rotate(-90 268.786 192.5)"/>
            <circle cx="618.5" cy="192.5" r="6.5" transform="rotate(-90 618.5 192.5)"/>
            <circle cx="6.5" cy="378.5" r="6.5" transform="rotate(-90 6.5 378.5)"/>
            <circle cx="356.214" cy="378.5" r="6.5" transform="rotate(-90 356.214 378.5)"/>
            <circle cx="93.929" cy="378.5" r="6.5" transform="rotate(-90 93.929 378.5)"/>
            <circle cx="443.643" cy="378.5" r="6.5" transform="rotate(-90 443.643 378.5)"/>
            <circle cx="181.357" cy="378.5" r="6.5" transform="rotate(-90 181.357 378.5)"/>
            <circle cx="531.071" cy="378.5" r="6.5" transform="rotate(-90 531.071 378.5)"/>
            <circle cx="268.786" cy="378.5" r="6.5" transform="rotate(-90 268.786 378.5)"/>
            <circle cx="618.5" cy="378.5" r="6.5" transform="rotate(-90 618.5 378.5)"/>
        </g>
        <g transform="translate(0 642)">
            <circle cx="6.5" cy="285.5" r="6.5" transform="rotate(-90 6.5 285.5)"/>
            <circle cx="356.214" cy="285.5" r="6.5" transform="rotate(-90 356.214 285.5)"/>
            <circle cx="93.929" cy="285.5" r="6.5" transform="rotate(-90 93.929 285.5)"/>
            <circle cx="443.643" cy="285.5" r="6.5" transform="rotate(-90 443.643 285.5)"/>
            <circle cx="181.357" cy="285.5" r="6.5" transform="rotate(-90 181.357 285.5)"/>
            <circle cx="531.071" cy="285.5" r="6.5" transform="rotate(-90 531.071 285.5)"/>
            <circle cx="268.786" cy="285.5" r="6.5" transform="rotate(-90 268.786 285.5)"/>
            <circle cx="618.5" cy="285.5" r="6.5" transform="rotate(-90 618.5 285.5)"/>
            <circle cx="6.5" cy="470.5" r="6.5" transform="rotate(-90 6.5 470.5)"/>
            <circle cx="356.214" cy="470.5" r="6.5" transform="rotate(-90 356.214 470.5)"/>
            <circle cx="93.929" cy="470.5" r="6.5" transform="rotate(-90 93.929 470.5)"/>
            <circle cx="443.643" cy="470.5" r="6.5" transform="rotate(-90 443.643 470.5)"/>
            <circle cx="181.357" cy="470.5" r="6.5" transform="rotate(-90 181.357 470.5)"/>
            <circle cx="531.071" cy="470.5" r="6.5" transform="rotate(-90 531.071 470.5)"/>
            <circle cx="268.786" cy="470.5" r="6.5" transform="rotate(-90 268.786 470.5)"/>
            <circle cx="618.5" cy="470.5" r="6.5" transform="rotate(-90 618.5 470.5)"/>
            <circle cx="6.5" cy="99.5" r="6.5" transform="rotate(-90 6.5 99.5)"/>
            <circle cx="356.214" cy="99.5" r="6.5" transform="rotate(-90 356.214 99.5)"/>
            <circle cx="93.929" cy="99.5" r="6.5" transform="rotate(-90 93.929 99.5)"/>
            <circle cx="443.643" cy="99.5" r="6.5" transform="rotate(-90 443.643 99.5)"/>
            <circle cx="181.357" cy="99.5" r="6.5" transform="rotate(-90 181.357 99.5)"/>
            <circle cx="531.071" cy="99.5" r="6.5" transform="rotate(-90 531.071 99.5)"/>
            <circle cx="268.786" cy="99.5" r="6.5" transform="rotate(-90 268.786 99.5)"/>
            <circle cx="618.5" cy="99.5" r="6.5" transform="rotate(-90 618.5 99.5)"/>
            <circle cx="6.5" cy="6.5" r="6.5" transform="rotate(-90 6.5 6.5)"/>
            <circle cx="356.214" cy="6.5" r="6.5" transform="rotate(-90 356.214 6.5)"/>
            <circle cx="93.929" cy="6.5" r="6.5" transform="rotate(-90 93.929 6.5)"/>
            <circle cx="443.643" cy="6.5" r="6.5" transform="rotate(-90 443.643 6.5)"/>
            <circle cx="181.357" cy="6.5" r="6.5" transform="rotate(-90 181.357 6.5)"/>
            <circle cx="531.071" cy="6.5" r="6.5" transform="rotate(-90 531.071 6.5)"/>
            <circle cx="268.786" cy="6.5" r="6.5" transform="rotate(-90 268.786 6.5)"/>
            <circle cx="618.5" cy="6.5" r="6.5" transform="rotate(-90 618.5 6.5)"/>
            <circle cx="6.5" cy="563.5" r="6.5" transform="rotate(-90 6.5 563.5)"/>
            <circle cx="356.214" cy="563.5" r="6.5" transform="rotate(-90 356.214 563.5)"/>
            <circle cx="93.929" cy="563.5" r="6.5" transform="rotate(-90 93.929 563.5)"/>
            <circle cx="443.643" cy="563.5" r="6.5" transform="rotate(-90 443.643 563.5)"/>
            <circle cx="181.357" cy="563.5" r="6.5" transform="rotate(-90 181.357 563.5)"/>
            <circle cx="531.071" cy="563.5" r="6.5" transform="rotate(-90 531.071 563.5)"/>
            <circle cx="268.786" cy="563.5" r="6.5" transform="rotate(-90 268.786 563.5)"/>
            <circle cx="618.5" cy="563.5" r="6.5" transform="rotate(-90 618.5 563.5)"/>
            <circle cx="6.5" cy="192.5" r="6.5" transform="rotate(-90 6.5 192.5)"/>
            <circle cx="356.214" cy="192.5" r="6.5" transform="rotate(-90 356.214 192.5)"/>
            <circle cx="93.929" cy="192.5" r="6.5" transform="rotate(-90 93.929 192.5)"/>
            <circle cx="443.643" cy="192.5" r="6.5" transform="rotate(-90 443.643 192.5)"/>
            <circle cx="181.357" cy="192.5" r="6.5" transform="rotate(-90 181.357 192.5)"/>
            <circle cx="531.071" cy="192.5" r="6.5" transform="rotate(-90 531.071 192.5)"/>
            <circle cx="268.786" cy="192.5" r="6.5" transform="rotate(-90 268.786 192.5)"/>
            <circle cx="618.5" cy="192.5" r="6.5" transform="rotate(-90 618.5 192.5)"/>
            <circle cx="6.5" cy="378.5" r="6.5" transform="rotate(-90 6.5 378.5)"/>
            <circle cx="356.214" cy="378.5" r="6.5" transform="rotate(-90 356.214 378.5)"/>
            <circle cx="93.929" cy="378.5" r="6.5" transform="rotate(-90 93.929 378.5)"/>
            <circle cx="443.643" cy="378.5" r="6.5" transform="rotate(-90 443.643 378.5)"/>
            <circle cx="181.357" cy="378.5" r="6.5" transform="rotate(-90 181.357 378.5)"/>
            <circle cx="531.071" cy="378.5" r="6.5" transform="rotate(-90 531.071 378.5)"/>
            <circle cx="268.786" cy="378.5" r="6.5" transform="rotate(-90 268.786 378.5)"/>
            <circle cx="618.5" cy="378.5" r="6.5" transform="rotate(-90 618.5 378.5)"/>
        </g>
    </g>
</svg>
