<svg xmlns="http://www.w3.org/2000/svg" width="139" height="178" viewBox="0 0 139 178">
    <g fill="none" fill-rule="evenodd">
        <path fill="#FFE300" d="M1 1h49.616v175.378H1z"/>
        <path fill="#06581B" d="M66.854 1H50.616v175.378h16.238z"/>
        <path fill="#0864FF" d="M66.512 108.939V1.025C72.805 1.008 76.139 1 76.515 1c30.076 0 54.457 24.368 54.457 54.428s-24.381 54.427-54.457 54.427a54.79 54.79 0 0 1-10.003-.916z"/>
        <path fill="#0864FF" d="M138.094 175.864H66.142v-67.211a54.79 54.79 0 0 0 10.003.916c4.148 0 8.188-.463 12.07-1.341l49.88 67.636z"/>
        <path fill="#001900" d="M66.348 78.584v30.208a54.094 54.094 0 0 1-15.86-5.443V57.077l15.86 21.507z"/>
        <path fill="#00F" d="M66.348 78.584L88.21 108.23a54.652 54.652 0 0 1-12.31 1.397 54.82 54.82 0 0 1-9.553-.835V78.584z"/>
    </g>
</svg>
